<?xml version="1.0" encoding="UTF-8" standalone="no"?>
<svg
   xmlns:dc="http://purl.org/dc/elements/1.1/"
   xmlns:cc="http://creativecommons.org/ns#"
   xmlns:rdf="http://www.w3.org/1999/02/22-rdf-syntax-ns#"
   xmlns:svg="http://www.w3.org/2000/svg"
   xmlns="http://www.w3.org/2000/svg"
   xmlns:sodipodi="http://sodipodi.sourceforge.net/DTD/sodipodi-0.dtd"
   xmlns:inkscape="http://www.inkscape.org/namespaces/inkscape"
   width="508mm"
   height="508mm"
   viewBox="0 0 508 508"
   version="1.1"
   id="svg8"
   inkscape:version="1.0.1 (3bc2e813f5, 2020-09-07)"
   sodipodi:docname="icon.svg">
  <defs
     id="defs2" />
  <sodipodi:namedview
     id="base"
     pagecolor="#ffffff"
     bordercolor="#666666"
     borderopacity="1.0"
     inkscape:pageopacity="0.0"
     inkscape:pageshadow="2"
     inkscape:zoom="0.175"
     inkscape:cx="2331.4286"
     inkscape:cy="1500.5714"
     inkscape:document-units="mm"
     inkscape:current-layer="layer1"
     inkscape:document-rotation="0"
     showgrid="false"
     inkscape:snap-bbox="true"
     inkscape:snap-bbox-midpoints="false"
     inkscape:snap-global="true"
     fit-margin-top="0"
     fit-margin-left="0"
     fit-margin-right="0"
     fit-margin-bottom="0"
     inkscape:snap-object-midpoints="true"
     inkscape:object-nodes="false"
     inkscape:bbox-nodes="true"
     inkscape:snap-smooth-nodes="false"
     inkscape:object-paths="true"
     inkscape:window-width="1848"
     inkscape:window-height="1016"
     inkscape:window-x="1680"
     inkscape:window-y="27"
     inkscape:window-maximized="1" />
  <metadata
     id="metadata5">
    <rdf:RDF>
      <cc:Work
         rdf:about="">
        <dc:format>image/svg+xml</dc:format>
        <dc:type
           rdf:resource="http://purl.org/dc/dcmitype/StillImage" />
        <dc:title></dc:title>
      </cc:Work>
    </rdf:RDF>
  </metadata>
  <g
     inkscape:label="Layer 1"
     inkscape:groupmode="layer"
     id="layer1"
     transform="translate(148.16667,71.966665)">
    <path
       id="path66"
       style="stroke-width:0.999999"
       d="m 1632,0 c -10,0 -19,1 -28,4 L 772,260 c -39.99999,13.00003 -68,50 -68,92 v 695.4473 l -102.18945,31.375 c -226.40005,69.5125 -409.59961,308.9613 -409.59961,535.3613 0,226.4 183.19956,353.3524 409.59961,283.8398 104.00001,-31.9315 198.40039,-100.1153 270.40039,-185.4218 l 175.99996,-54.0391 c 72,41.0936 166.3985,51.3105 270.3985,19.3789 226.4,-69.5125 413.3183,-308.9918 409.6015,-535.3613 l -0.2148,-13.0821 0,0 V 96 c 0,-53.000001 -43,-96 -96,-96 z m -32,526 v 358.17383 c -73.3554,-46.81517 -172.3619,-58.9091 -281.3906,-25.4336 L 832,1008.1465 V 763 Z m -148.4473,501.3047 c 41.7549,0.091 71.8575,29.6058 71.8575,75.7558 0,56.8 -45.6004,116.4004 -102.4004,133.8399 -56.8,17.4395 -102.4004,-14.159 -102.4004,-70.959 0,-56.8 45.6004,-116.4023 102.4004,-133.8418 10.65,-3.2699 20.9072,-4.8159 30.5429,-4.7949 z m -790.832,188.1601 c 10.49648,-0.039 17.88868,7.2786 17.88868,18.9786 v 153.5996 l 153.60156,-47.1602 c 14.4,-4.4213 25.59961,3.3402 25.59961,17.7402 v 102.3985 c 0,14.4 -11.19961,29.0396 -25.59961,33.4609 l -153.60156,47.1602 v 153.5996 c 0,14.4 -11.19961,29.0396 -25.59961,33.4609 l -102.40039,31.4395 c -14.4,4.4213 -25.59961,-3.3403 -25.59961,-17.7403 v -153.5996 l -153.59961,47.1602 c -14.4,4.4213 -25.59961,-3.3402 -25.59961,-17.7402 v -102.3985 c 0,-14.4 11.19961,-29.0396 25.59961,-33.4609 l 153.59961,-47.1602 v -153.5996 c 0,-14.4 11.19961,-29.0396 25.59961,-33.4609 l 102.40039,-31.4395 c 2.7,-0.829 5.28867,-1.2293 7.71093,-1.2383 z m 586.0313,79.5215 c 41.7548,0.091 71.8574,29.6039 71.8574,75.7539 0,56.8001 -45.5985,116.4023 -102.3985,133.8418 -56.7999,17.4396 -102.4004,-14.1609 -102.4004,-70.9609 0,-56.8 45.6005,-116.4003 102.4004,-133.8399 10.65,-3.2699 20.9053,-4.8159 30.5411,-4.7949 z"
       transform="matrix(0.26458333,0,0,0.26458333,-148.16667,-71.966665)"
       sodipodi:nodetypes="sccsccssccssccssccccccssssssssccssccsccscsssscsccsssssss" />
  </g>
</svg>
